# xmcd
#
# Track frame offsets:
#	150
#	13671
#	25638
#	38169
#	49434
#	66319
#	81533
#	94238
#	107368
#	124738
#	139810
#	149356
#	162124
#
# Disc length: 2340 seconds
#
# Revision: 2
# Processed by: cddbd v1.5.1PL0 Copyright (c) Steve Scherf et al.
# Submitted via: EasyCDDAExtractor 8.1.2.3
#
DISCID=b209220d
DTITLE=Various Artist - This Side Of The Moon
DYEAR=2005
DGENRE=Country
TTITLE0=beth cook - Cupid
TTITLE1=beth cook - Funny Side Of Love
TTITLE2=Elizabeth cook - Before I Go That Far
TTITLE3=beth cook - Here's To You
TTITLE4=beth cook - This Side Of The Moon
TTITLE5=beth cook - Kiss Me Again
TTITLE6=beth cook - Ruthless
TTITLE7=beth cook - Alone Down Here
TTITLE8=beth cook - Hard-Hearted
TTITLE9=beth cook - Heather, Are You With Me Tonight?
TTITLE10=beth cook - All We NeedIs Love
TTITLE11=beth cook - Where The Blue Begins
TTITLE12=beth cook - Somebody's Gotta Do It
EXTD=
EXTT0=
EXTT1=
EXTT2=
EXTT3=
EXTT4=
EXTT5=
EXTT6=
EXTT7=
EXTT8=
EXTT9=
EXTT10=
EXTT11=
EXTT12=
PLAYORDER=
